<svg xmlns="http://www.w3.org/2000/svg" width="820" height="620" viewBox="0 0 820 620">
<rect width="100%" height="100%" fill="white"/>
<text x="410.0" y="45" text-anchor="middle" font-family="Arial, sans-serif" font-size="24" font-weight="700">Judge Rank Correlation (Automation, Pearson)</text>
<text x="410.0" y="75" text-anchor="middle" font-family="Arial, sans-serif" font-size="13" fill="#555">Computed on shared model-rank entries only; lower rank = better. Leave-family-out creates missing cells.</text>
<text x="335.0" y="105" text-anchor="middle" font-family="Arial, sans-serif" font-size="14" font-weight="600">GPT-4.1</text>
<text x="485.0" y="105" text-anchor="middle" font-family="Arial, sans-serif" font-size="14" font-weight="600">Claude-Opus-4.8</text>
<text x="635.0" y="105" text-anchor="middle" font-family="Arial, sans-serif" font-size="14" font-weight="600">DeepSeek-V3.1</text>
<text x="242" y="200.0" text-anchor="end" font-family="Arial, sans-serif" font-size="15" font-weight="600">GPT-4.1</text>
<text x="242" y="350.0" text-anchor="end" font-family="Arial, sans-serif" font-size="15" font-weight="600">Claude-Opus-4.8</text>
<text x="242" y="500.0" text-anchor="end" font-family="Arial, sans-serif" font-size="15" font-weight="600">DeepSeek-V3.1</text>
<rect x="260" y="120" width="150" height="150" fill="#1b9e77" stroke="white" stroke-width="3"/>
<text x="335.0" y="191.0" text-anchor="middle" font-family="Arial, sans-serif" font-size="28" font-weight="700" fill="#111">1.00</text>
<text x="335.0" y="219.0" text-anchor="middle" font-family="Arial, sans-serif" font-size="12" fill="#333">n=28</text>
<rect x="410" y="120" width="150" height="150" fill="#66bea4" stroke="white" stroke-width="3"/>
<text x="485.0" y="191.0" text-anchor="middle" font-family="Arial, sans-serif" font-size="28" font-weight="700" fill="#111">0.67</text>
<text x="485.0" y="219.0" text-anchor="middle" font-family="Arial, sans-serif" font-size="12" fill="#333">n=14</text>
<rect x="560" y="120" width="150" height="150" fill="#45b090" stroke="white" stroke-width="3"/>
<text x="635.0" y="191.0" text-anchor="middle" font-family="Arial, sans-serif" font-size="28" font-weight="700" fill="#111">0.81</text>
<text x="635.0" y="219.0" text-anchor="middle" font-family="Arial, sans-serif" font-size="12" fill="#333">n=21</text>
<rect x="260" y="270" width="150" height="150" fill="#66bea4" stroke="white" stroke-width="3"/>
<text x="335.0" y="341.0" text-anchor="middle" font-family="Arial, sans-serif" font-size="28" font-weight="700" fill="#111">0.67</text>
<text x="335.0" y="369.0" text-anchor="middle" font-family="Arial, sans-serif" font-size="12" fill="#333">n=14</text>
<rect x="410" y="270" width="150" height="150" fill="#1b9e77" stroke="white" stroke-width="3"/>
<text x="485.0" y="341.0" text-anchor="middle" font-family="Arial, sans-serif" font-size="28" font-weight="700" fill="#111">1.00</text>
<text x="485.0" y="369.0" text-anchor="middle" font-family="Arial, sans-serif" font-size="12" fill="#333">n=56</text>
<rect x="560" y="270" width="150" height="150" fill="#3cac8a" stroke="white" stroke-width="3"/>
<text x="635.0" y="341.0" text-anchor="middle" font-family="Arial, sans-serif" font-size="28" font-weight="700" fill="#111">0.85</text>
<text x="635.0" y="369.0" text-anchor="middle" font-family="Arial, sans-serif" font-size="12" fill="#333">n=49</text>
<rect x="260" y="420" width="150" height="150" fill="#45b090" stroke="white" stroke-width="3"/>
<text x="335.0" y="491.0" text-anchor="middle" font-family="Arial, sans-serif" font-size="28" font-weight="700" fill="#111">0.81</text>
<text x="335.0" y="519.0" text-anchor="middle" font-family="Arial, sans-serif" font-size="12" fill="#333">n=21</text>
<rect x="410" y="420" width="150" height="150" fill="#3cac8a" stroke="white" stroke-width="3"/>
<text x="485.0" y="491.0" text-anchor="middle" font-family="Arial, sans-serif" font-size="28" font-weight="700" fill="#111">0.85</text>
<text x="485.0" y="519.0" text-anchor="middle" font-family="Arial, sans-serif" font-size="12" fill="#333">n=49</text>
<rect x="560" y="420" width="150" height="150" fill="#1b9e77" stroke="white" stroke-width="3"/>
<text x="635.0" y="491.0" text-anchor="middle" font-family="Arial, sans-serif" font-size="28" font-weight="700" fill="#111">1.00</text>
<text x="635.0" y="519.0" text-anchor="middle" font-family="Arial, sans-serif" font-size="12" fill="#333">n=63</text>
<rect x="260" y="605" width="3" height="16" fill="#b2182b"/>
<rect x="263" y="605" width="3" height="16" fill="#b31c2f"/>
<rect x="266" y="605" width="3" height="16" fill="#b52133"/>
<rect x="269" y="605" width="3" height="16" fill="#b62537"/>
<rect x="272" y="605" width="3" height="16" fill="#b82a3b"/>
<rect x="275" y="605" width="3" height="16" fill="#b92f40"/>
<rect x="278" y="605" width="3" height="16" fill="#bb3344"/>
<rect x="281" y="605" width="3" height="16" fill="#bc3848"/>
<rect x="284" y="605" width="3" height="16" fill="#be3c4c"/>
<rect x="287" y="605" width="3" height="16" fill="#bf4151"/>
<rect x="290" y="605" width="3" height="16" fill="#c14655"/>
<rect x="293" y="605" width="3" height="16" fill="#c24a59"/>
<rect x="296" y="605" width="3" height="16" fill="#c44f5d"/>
<rect x="299" y="605" width="3" height="16" fill="#c65462"/>
<rect x="302" y="605" width="3" height="16" fill="#c75866"/>
<rect x="305" y="605" width="3" height="16" fill="#c95d6a"/>
<rect x="308" y="605" width="3" height="16" fill="#ca616e"/>
<rect x="311" y="605" width="3" height="16" fill="#cc6673"/>
<rect x="314" y="605" width="3" height="16" fill="#cd6b77"/>
<rect x="317" y="605" width="3" height="16" fill="#cf6f7b"/>
<rect x="320" y="605" width="3" height="16" fill="#d0747f"/>
<rect x="323" y="605" width="3" height="16" fill="#d27984"/>
<rect x="326" y="605" width="3" height="16" fill="#d37d88"/>
<rect x="329" y="605" width="3" height="16" fill="#d5828c"/>
<rect x="332" y="605" width="3" height="16" fill="#d68690"/>
<rect x="335" y="605" width="3" height="16" fill="#d88b95"/>
<rect x="338" y="605" width="3" height="16" fill="#da9099"/>
<rect x="341" y="605" width="3" height="16" fill="#db949d"/>
<rect x="344" y="605" width="3" height="16" fill="#dd99a1"/>
<rect x="347" y="605" width="3" height="16" fill="#de9da5"/>
<rect x="350" y="605" width="3" height="16" fill="#e0a2aa"/>
<rect x="353" y="605" width="3" height="16" fill="#e1a7ae"/>
<rect x="356" y="605" width="3" height="16" fill="#e3abb2"/>
<rect x="359" y="605" width="3" height="16" fill="#e4b0b6"/>
<rect x="362" y="605" width="3" height="16" fill="#e6b5bb"/>
<rect x="365" y="605" width="3" height="16" fill="#e7b9bf"/>
<rect x="368" y="605" width="3" height="16" fill="#e9bec3"/>
<rect x="371" y="605" width="3" height="16" fill="#eac2c7"/>
<rect x="374" y="605" width="3" height="16" fill="#ecc7cc"/>
<rect x="377" y="605" width="3" height="16" fill="#eeccd0"/>
<rect x="380" y="605" width="3" height="16" fill="#efd0d4"/>
<rect x="383" y="605" width="3" height="16" fill="#f1d5d8"/>
<rect x="386" y="605" width="3" height="16" fill="#f2dadd"/>
<rect x="389" y="605" width="3" height="16" fill="#f4dee1"/>
<rect x="392" y="605" width="3" height="16" fill="#f5e3e5"/>
<rect x="395" y="605" width="3" height="16" fill="#f7e7e9"/>
<rect x="398" y="605" width="3" height="16" fill="#f8ecee"/>
<rect x="401" y="605" width="3" height="16" fill="#faf1f2"/>
<rect x="404" y="605" width="3" height="16" fill="#fbf5f6"/>
<rect x="407" y="605" width="3" height="16" fill="#fdfafa"/>
<rect x="410" y="605" width="3" height="16" fill="#ffffff"/>
<rect x="413" y="605" width="3" height="16" fill="#fafdfc"/>
<rect x="416" y="605" width="3" height="16" fill="#f5fbf9"/>
<rect x="419" y="605" width="3" height="16" fill="#f1f9f6"/>
<rect x="422" y="605" width="3" height="16" fill="#ecf7f4"/>
<rect x="425" y="605" width="3" height="16" fill="#e8f5f1"/>
<rect x="428" y="605" width="3" height="16" fill="#e3f3ee"/>
<rect x="431" y="605" width="3" height="16" fill="#dff1eb"/>
<rect x="434" y="605" width="3" height="16" fill="#daefe9"/>
<rect x="437" y="605" width="3" height="16" fill="#d5ede6"/>
<rect x="440" y="605" width="3" height="16" fill="#d1ebe3"/>
<rect x="443" y="605" width="3" height="16" fill="#cce9e1"/>
<rect x="446" y="605" width="3" height="16" fill="#c8e7de"/>
<rect x="449" y="605" width="3" height="16" fill="#c3e5db"/>
<rect x="452" y="605" width="3" height="16" fill="#bfe3d8"/>
<rect x="455" y="605" width="3" height="16" fill="#bae1d6"/>
<rect x="458" y="605" width="3" height="16" fill="#b6dfd3"/>
<rect x="461" y="605" width="3" height="16" fill="#b1ded0"/>
<rect x="464" y="605" width="3" height="16" fill="#acdcce"/>
<rect x="467" y="605" width="3" height="16" fill="#a8dacb"/>
<rect x="470" y="605" width="3" height="16" fill="#a3d8c8"/>
<rect x="473" y="605" width="3" height="16" fill="#9fd6c5"/>
<rect x="476" y="605" width="3" height="16" fill="#9ad4c3"/>
<rect x="479" y="605" width="3" height="16" fill="#96d2c0"/>
<rect x="482" y="605" width="3" height="16" fill="#91d0bd"/>
<rect x="485" y="605" width="3" height="16" fill="#8dcebb"/>
<rect x="488" y="605" width="3" height="16" fill="#88ccb8"/>
<rect x="491" y="605" width="3" height="16" fill="#83cab5"/>
<rect x="494" y="605" width="3" height="16" fill="#7fc8b2"/>
<rect x="497" y="605" width="3" height="16" fill="#7ac6b0"/>
<rect x="500" y="605" width="3" height="16" fill="#76c4ad"/>
<rect x="503" y="605" width="3" height="16" fill="#71c2aa"/>
<rect x="506" y="605" width="3" height="16" fill="#6dc0a7"/>
<rect x="509" y="605" width="3" height="16" fill="#68bea5"/>
<rect x="512" y="605" width="3" height="16" fill="#63bda2"/>
<rect x="515" y="605" width="3" height="16" fill="#5fbb9f"/>
<rect x="518" y="605" width="3" height="16" fill="#5ab99d"/>
<rect x="521" y="605" width="3" height="16" fill="#56b79a"/>
<rect x="524" y="605" width="3" height="16" fill="#51b597"/>
<rect x="527" y="605" width="3" height="16" fill="#4db394"/>
<rect x="530" y="605" width="3" height="16" fill="#48b192"/>
<rect x="533" y="605" width="3" height="16" fill="#44af8f"/>
<rect x="536" y="605" width="3" height="16" fill="#3fad8c"/>
<rect x="539" y="605" width="3" height="16" fill="#3aab8a"/>
<rect x="542" y="605" width="3" height="16" fill="#36a987"/>
<rect x="545" y="605" width="3" height="16" fill="#31a784"/>
<rect x="548" y="605" width="3" height="16" fill="#2da581"/>
<rect x="551" y="605" width="3" height="16" fill="#28a37f"/>
<rect x="554" y="605" width="3" height="16" fill="#24a17c"/>
<rect x="557" y="605" width="3" height="16" fill="#1f9f79"/>
<rect x="560" y="605" width="3" height="16" fill="#1b9e77"/>
<text x="260" y="641" font-family="Arial, sans-serif" font-size="12" text-anchor="middle">-1</text>
<text x="410" y="641" font-family="Arial, sans-serif" font-size="12" text-anchor="middle">0</text>
<text x="560" y="641" font-family="Arial, sans-serif" font-size="12" text-anchor="middle">1</text>
<text x="410" y="663" font-family="Arial, sans-serif" font-size="13" text-anchor="middle" fill="#444">Correlation of judge rank vectors</text>
</svg>